<?xml version="1.0" encoding="UTF-8"?><svg id="Groups16" xmlns="http://www.w3.org/2000/svg" viewBox="0 0 64 64"><defs><style></style></defs><g><circle class="cls-1" cx="33" cy="12" r="12"/><circle class="cls-1" cx="52" cy="52" r="12"/><circle class="cls-1" cx="12" cy="52" r="12"/></g><circle class="cls-1" cx="33" cy="12" r="12"/><path class="cls-1" d="M54.26,50.93l-4.52,2.14-5.04-10.6-1.3-2.75-6.31-13.29c1.64-.46,3.16-1.2,4.52-2.15l6.31,13.29,1.3,2.76,5.04,10.6Z"/><path class="cls-1" d="M35.21,13.16l-5.45,10.39-8.68,16.52c-1.32-1.01-2.81-1.8-4.42-2.32l8.67-16.51,5.46-10.4,4.42,2.32Z"/><path class="cls-1" d="M37,52c0,.85,.07,1.69,.21,2.5H12v-5h25.21c-.14,.81-.21,1.65-.21,2.5Z"/></svg>
